<svg width="161" height="40" viewBox="0 0 161 40" fill="none" xmlns="http://www.w3.org/2000/svg">
<g clip-path="url(#clip0_91_44)">
<path d="M153 0.5H8C4.13401 0.5 1 3.63401 1 7.5V32.5C1 36.366 4.13401 39.5 8 39.5H153C156.866 39.5 160 36.366 160 32.5V7.5C160 3.63401 156.866 0.5 153 0.5Z" stroke="#AFAFAF"/>
<path d="M43.5 14.8958V9.1042H44.4102V14.1317H47.1681V14.8958H43.5ZM48.5087 9.99855C48.2266 9.99855 47.9808 9.78148 47.9808 9.50362C47.9808 9.22576 48.2266 9 48.5087 9C48.8 9 49.0366 9.22576 49.0366 9.50362C49.0366 9.78148 48.8 9.99855 48.5087 9.99855ZM48.1082 14.8958V10.7019H48.9274V14.8958H48.1082ZM49.8039 14.3488L50.1952 13.7757C50.4956 14.0883 51.0781 14.3748 51.6698 14.3748C52.2887 14.3748 52.6164 14.1317 52.6164 13.7757C52.6164 13.3589 52.1157 13.22 51.5514 13.0984C50.8051 12.9334 49.9313 12.7424 49.9313 11.8394C49.9313 11.1708 50.532 10.5977 51.606 10.5977C52.3615 10.5977 52.9076 10.8582 53.2808 11.1968L52.9167 11.7438C52.6619 11.4486 52.1704 11.2315 51.6151 11.2315C51.0599 11.2315 50.7141 11.4399 50.7141 11.7786C50.7141 12.1433 51.1874 12.2648 51.7335 12.3864C52.498 12.5514 53.4082 12.7511 53.4082 13.7149C53.4082 14.4356 52.7893 15 51.6333 15C50.8961 15 50.2499 14.7829 49.8039 14.3488ZM55.6136 15C54.9218 15 54.5668 14.6266 54.5668 13.9667V11.3878H53.8387V10.7019H54.5668V9.55572H55.386V10.7019H56.278V11.3878H55.386V13.7931C55.386 14.0883 55.5316 14.3054 55.8138 14.3054C56.0049 14.3054 56.1779 14.2272 56.2598 14.1404L56.4691 14.7308C56.2962 14.8871 56.0413 15 55.6136 15ZM56.8723 12.7945C56.8723 11.5789 57.7916 10.5977 59.0749 10.5977C60.3947 10.5977 61.2139 11.5789 61.2139 12.864V13.055H57.737C57.8007 13.767 58.3468 14.3575 59.2297 14.3575C59.6939 14.3575 60.2036 14.1838 60.5313 13.8625L60.9135 14.3748C60.4766 14.7829 59.8577 15 59.1478 15C57.8371 15 56.8723 14.1143 56.8723 12.7945ZM59.0749 11.2402C58.1921 11.2402 57.7734 11.9175 57.7279 12.4906H60.4129C60.3947 11.9349 60.0033 11.2402 59.0749 11.2402ZM65.1668 14.8958V12.2127C65.1668 11.5181 64.7936 11.2923 64.2293 11.2923C63.7196 11.2923 63.2554 11.5876 63.0187 11.9001V14.8958H62.1996V10.7019H63.0187V11.2923C63.31 10.9537 63.8925 10.5977 64.5752 10.5977C65.5036 10.5977 65.986 11.0666 65.986 11.9522V14.8958H65.1668ZM71.498 15C70.1327 15 69.2771 14.0101 69.2771 12.7945C69.2771 11.5876 70.1327 10.5977 71.498 10.5977C72.8723 10.5977 73.7188 11.5876 73.7188 12.7945C73.7188 14.0101 72.8723 15 71.498 15ZM71.498 14.3054C72.3808 14.3054 72.8633 13.5933 72.8633 12.7945C72.8633 12.0043 72.3808 11.2923 71.498 11.2923C70.6242 11.2923 70.1327 12.0043 70.1327 12.7945C70.1327 13.5933 70.6242 14.3054 71.498 14.3054ZM77.6808 14.8958V12.2127C77.6808 11.5181 77.3076 11.2923 76.7433 11.2923C76.2336 11.2923 75.7694 11.5876 75.5328 11.9001V14.8958H74.7136V10.7019H75.5328V11.2923C75.824 10.9537 76.4066 10.5977 77.0892 10.5977C78.0176 10.5977 78.5 11.0666 78.5 11.9522V14.8958H77.6808Z" fill="black"/>
<path fill-rule="evenodd" clip-rule="evenodd" d="M21.4375 14.9546V18.7429V20.2571V24.0455H24.5625V20.2571V18.7429V14.9546H21.4375Z" fill="#FAB908"/>
<path d="M12.0625 20.2102C12.9254 20.2102 13.625 19.5106 13.625 18.6477C13.625 17.7848 12.9254 17.0852 12.0625 17.0852C11.1996 17.0852 10.5 17.7848 10.5 18.6477C10.5 19.5106 11.1996 20.2102 12.0625 20.2102Z" fill="#0066D9"/>
<path d="M12.0625 21.9148C12.9254 21.9148 13.625 21.2152 13.625 20.3523C13.625 19.4894 12.9254 18.7898 12.0625 18.7898C11.1996 18.7898 10.5 19.4894 10.5 20.3523C10.5 21.2152 11.1996 21.9148 12.0625 21.9148Z" fill="#0066D9"/>
<path d="M13.625 18.6477H10.5V20.3523H13.625V18.6477Z" fill="#0066D9"/>
<path d="M33.9375 21.9148C34.8004 21.9148 35.5 21.2152 35.5 20.3523C35.5 19.4894 34.8004 18.7898 33.9375 18.7898C33.0746 18.7898 32.375 19.4894 32.375 20.3523C32.375 21.2152 33.0746 21.9148 33.9375 21.9148Z" fill="#4285F4"/>
<path d="M33.9375 20.2102C34.8004 20.2102 35.5 19.5106 35.5 18.6477C35.5 17.7848 34.8004 17.0852 33.9375 17.0852C33.0746 17.0852 32.375 17.7848 32.375 18.6477C32.375 19.5106 33.0746 20.2102 33.9375 20.2102Z" fill="#4285F4"/>
<path d="M32.375 20.3523H35.5V18.6477H32.375V20.3523Z" fill="#4285F4"/>
<path d="M17.4602 25.324C18.3231 25.324 19.0227 24.6244 19.0227 23.7615C19.0227 22.8985 18.3231 22.199 17.4602 22.199C16.5973 22.199 15.8977 22.8985 15.8977 23.7615C15.8977 24.6244 16.5973 25.324 17.4602 25.324Z" fill="#EA4335"/>
<path d="M17.4602 27.0283C18.3231 27.0283 19.0227 26.3288 19.0227 25.4658C19.0227 24.6029 18.3231 23.9033 17.4602 23.9033C16.5973 23.9033 15.8977 24.6029 15.8977 25.4658C15.8977 26.3288 16.5973 27.0283 17.4602 27.0283Z" fill="#EA4335"/>
<path d="M19.0227 23.7615H15.8977V25.466H19.0227V23.7615Z" fill="#EA4335"/>
<path d="M17.4602 15.0967C18.3231 15.0967 19.0227 14.3971 19.0227 13.5342C19.0227 12.6712 18.3231 11.9717 17.4602 11.9717C16.5973 11.9717 15.8977 12.6712 15.8977 13.5342C15.8977 14.3971 16.5973 15.0967 17.4602 15.0967Z" fill="#EA4335"/>
<path d="M17.4602 20.6365C18.3231 20.6365 19.0227 19.9369 19.0227 19.074C19.0227 18.211 18.3231 17.5115 17.4602 17.5115C16.5973 17.5115 15.8977 18.211 15.8977 19.074C15.8977 19.9369 16.5973 20.6365 17.4602 20.6365Z" fill="#EA4335"/>
<path d="M19.0227 13.5342H15.8977V19.1095H19.0227V13.5342Z" fill="#EA4335"/>
<path d="M28.5398 16.801C29.4027 16.801 30.1023 16.1015 30.1023 15.2385C30.1023 14.3756 29.4027 13.676 28.5398 13.676C27.6769 13.676 26.9773 14.3756 26.9773 15.2385C26.9773 16.1015 27.6769 16.801 28.5398 16.801Z" fill="#34A853"/>
<path d="M28.5398 15.0967C29.4027 15.0967 30.1023 14.3971 30.1023 13.5342C30.1023 12.6712 29.4027 11.9717 28.5398 11.9717C27.6769 11.9717 26.9773 12.6712 26.9773 13.5342C26.9773 14.3971 27.6769 15.0967 28.5398 15.0967Z" fill="#34A853"/>
<path d="M26.9773 15.2385H30.1023V13.534H26.9773V15.2385Z" fill="#34A853"/>
<path d="M23 11.8296C23.8629 11.8296 24.5625 11.13 24.5625 10.2671C24.5625 9.40414 23.8629 8.70459 23 8.70459C22.1371 8.70459 21.4375 9.40414 21.4375 10.2671C21.4375 11.13 22.1371 11.8296 23 11.8296Z" fill="#FAB908"/>
<path d="M23 10.125C23.8629 10.125 24.5625 9.42544 24.5625 8.5625C24.5625 7.69956 23.8629 7 23 7C22.1371 7 21.4375 7.69956 21.4375 8.5625C21.4375 9.42544 22.1371 10.125 23 10.125Z" fill="#FAB908"/>
<path d="M21.4375 10.2671H24.5625V8.56254H21.4375V10.2671Z" fill="#FAB908"/>
<path d="M23 32C23.8629 32 24.5625 31.3004 24.5625 30.4375C24.5625 29.5746 23.8629 28.875 23 28.875C22.1371 28.875 21.4375 29.5746 21.4375 30.4375C21.4375 31.3004 22.1371 32 23 32Z" fill="#FAB908"/>
<path d="M23 30.2954C23.8629 30.2954 24.5625 29.5959 24.5625 28.7329C24.5625 27.87 23.8629 27.1704 23 27.1704C22.1371 27.1704 21.4375 27.87 21.4375 28.7329C21.4375 29.5959 22.1371 30.2954 23 30.2954Z" fill="#FAB908"/>
<path d="M21.4375 30.4375H24.5625V28.733H21.4375V30.4375Z" fill="#FAB908"/>
<path d="M28.5398 27.0283C29.4027 27.0283 30.1023 26.3288 30.1023 25.4658C30.1023 24.6029 29.4027 23.9033 28.5398 23.9033C27.6769 23.9033 26.9773 24.6029 26.9773 25.4658C26.9773 26.3288 27.6769 27.0283 28.5398 27.0283Z" fill="#34A853"/>
<path d="M28.5398 21.4885C29.4027 21.4885 30.1023 20.789 30.1023 19.926C30.1023 19.0631 29.4027 18.3635 28.5398 18.3635C27.6769 18.3635 26.9773 19.0631 26.9773 19.926C26.9773 20.789 27.6769 21.4885 28.5398 21.4885Z" fill="#34A853"/>
<path d="M26.9773 25.4658H30.1023V19.926H26.9773V25.4658Z" fill="#34A853"/>
<path d="M23 16.5171C23.8629 16.5171 24.5625 15.8175 24.5625 14.9546C24.5625 14.0916 23.8629 13.3921 23 13.3921C22.1371 13.3921 21.4375 14.0916 21.4375 14.9546C21.4375 15.8175 22.1371 16.5171 23 16.5171Z" fill="#FAB908"/>
<path d="M23 25.6079C23.8629 25.6079 24.5625 24.9084 24.5625 24.0454C24.5625 23.1825 23.8629 22.4829 23 22.4829C22.1371 22.4829 21.4375 23.1825 21.4375 24.0454C21.4375 24.9084 22.1371 25.6079 23 25.6079Z" fill="#FAB908"/>
<path d="M48.0225 31.1758C50.8862 31.1758 52.5781 29.4692 52.5781 26.6055V25.5288H48.2275V26.8545H50.9595V27.0376C50.9375 28.6416 49.751 29.7402 48.0371 29.7402C46.0229 29.7402 44.7705 28.1802 44.7705 25.6533C44.7705 23.1704 45.9863 21.6909 48.0078 21.6909C49.3848 21.6909 50.4175 22.4453 50.813 23.7563H52.4976C52.1313 21.647 50.3516 20.2554 48.0005 20.2554C44.9902 20.2554 43.0933 22.3354 43.0933 25.668C43.0933 29.0591 44.9976 31.1758 48.0225 31.1758ZM57.3022 31.1465C59.5068 31.1465 60.957 29.6304 60.957 27.1475C60.957 24.6719 59.4995 23.1558 57.3022 23.1558C55.105 23.1558 53.6475 24.6719 53.6475 27.1475C53.6475 29.6304 55.0977 31.1465 57.3022 31.1465ZM57.3022 29.8428C56.0645 29.8428 55.2588 28.8613 55.2588 27.1475C55.2588 25.4409 56.0645 24.4595 57.3022 24.4595C58.54 24.4595 59.3457 25.4409 59.3457 27.1475C59.3457 28.8613 58.5474 29.8428 57.3022 29.8428ZM65.4907 31.1465C67.6953 31.1465 69.1455 29.6304 69.1455 27.1475C69.1455 24.6719 67.688 23.1558 65.4907 23.1558C63.2935 23.1558 61.8359 24.6719 61.8359 27.1475C61.8359 29.6304 63.2861 31.1465 65.4907 31.1465ZM65.4907 29.8428C64.2529 29.8428 63.4473 28.8613 63.4473 27.1475C63.4473 25.4409 64.2529 24.4595 65.4907 24.4595C66.7285 24.4595 67.5342 25.4409 67.5342 27.1475C67.5342 28.8613 66.7358 29.8428 65.4907 29.8428ZM73.6646 33.9004C75.8618 33.9004 77.2827 32.6992 77.2827 30.8608V23.2949H75.7446V24.6133H75.7153C75.2466 23.7197 74.353 23.1704 73.2617 23.1704C71.2842 23.1704 70.0244 24.6938 70.0244 27.1182C70.0244 29.5205 71.2915 31.0293 73.2251 31.0293C74.3237 31.0293 75.2319 30.48 75.6641 29.645H75.6934V30.9121C75.6934 31.9668 74.9609 32.6699 73.7231 32.6699C72.8223 32.6699 72.1191 32.2451 71.8921 31.6006H70.3027C70.5005 32.9336 71.8481 33.9004 73.6646 33.9004ZM73.6499 29.7183C72.4341 29.7183 71.6431 28.7368 71.6431 27.1255C71.6431 25.5215 72.4341 24.5034 73.6499 24.5034C74.8877 24.5034 75.7007 25.5435 75.7007 27.1255C75.7007 28.7148 74.8877 29.7183 73.6499 29.7183ZM80.4834 31V20.4312H78.9014V31H80.4834ZM85.3979 31.1465C87.1631 31.1465 88.4961 30.1431 88.7158 28.7368H87.2144C87.002 29.4106 86.3354 29.8647 85.4346 29.8647C84.1675 29.8647 83.3618 28.9785 83.3618 27.6382V27.543H88.8037V27.001C88.8037 24.6646 87.4707 23.1558 85.332 23.1558C83.1567 23.1558 81.7651 24.7671 81.7651 27.1841C81.7651 29.6157 83.1348 31.1465 85.3979 31.1465ZM87.2217 26.437H83.3691C83.4497 25.2725 84.2261 24.4302 85.332 24.4302C86.438 24.4302 87.1851 25.2578 87.2217 26.437ZM94.8975 31V27.3892H97.168C99.2407 27.3892 100.698 25.9683 100.698 23.9028C100.698 21.8447 99.27 20.4312 97.2192 20.4312H93.2568V31H94.8975ZM96.7798 26.0122H94.8975V21.8154H96.7871C98.208 21.8154 99.021 22.5771 99.021 23.9102C99.021 25.2432 98.208 26.0122 96.7798 26.0122ZM105.254 31.1465C107.458 31.1465 108.909 29.6304 108.909 27.1475C108.909 24.6719 107.451 23.1558 105.254 23.1558C103.057 23.1558 101.599 24.6719 101.599 27.1475C101.599 29.6304 103.049 31.1465 105.254 31.1465ZM105.254 29.8428C104.016 29.8428 103.21 28.8613 103.21 27.1475C103.21 25.4409 104.016 24.4595 105.254 24.4595C106.492 24.4595 107.297 25.4409 107.297 27.1475C107.297 28.8613 106.499 29.8428 105.254 29.8428ZM113.025 31.1318C114.146 31.1318 115.024 30.5679 115.479 29.689H115.508V31H117.046V20.4312H115.457V24.5767H115.427C114.995 23.7271 114.116 23.1704 113.01 23.1704C111.077 23.1704 109.788 24.7158 109.788 27.1475C109.788 29.5791 111.077 31.1318 113.025 31.1318ZM113.442 29.7915C112.19 29.7915 111.406 28.7734 111.406 27.1475C111.406 25.5288 112.19 24.5034 113.442 24.5034C114.658 24.5034 115.471 25.5508 115.471 27.1475C115.471 28.7588 114.658 29.7915 113.442 29.7915ZM121.96 31.1465C123.813 31.1465 125.125 30.0332 125.293 28.3926H123.77C123.586 29.2861 122.949 29.8208 121.975 29.8208C120.745 29.8208 119.932 28.8394 119.932 27.1475C119.932 25.4922 120.737 24.4741 121.96 24.4741C122.993 24.4741 123.608 25.126 123.77 25.9463H125.278C125.139 24.4302 123.931 23.1558 121.946 23.1558C119.756 23.1558 118.32 24.7012 118.32 27.1475C118.32 29.6377 119.756 31.1465 121.96 31.1465ZM128.669 31.1318C129.68 31.1318 130.654 30.5898 131.101 29.7329H131.138V31H132.654V25.6899C132.654 24.1445 131.46 23.1558 129.592 23.1558C127.688 23.1558 126.501 24.1812 126.414 25.5728H127.908C128.047 24.8843 128.618 24.4448 129.534 24.4448C130.5 24.4448 131.079 24.9575 131.079 25.8145V26.4077L128.97 26.5322C127.139 26.6348 126.106 27.4624 126.106 28.8101C126.106 30.1943 127.161 31.1318 128.669 31.1318ZM129.109 29.8794C128.259 29.8794 127.703 29.4399 127.703 28.7661C127.703 28.1069 128.237 27.6895 129.182 27.6235L131.079 27.5063V28.1143C131.079 29.1177 130.215 29.8794 129.109 29.8794ZM137.078 31.1465C138.894 31.1465 140.205 30.1797 140.205 28.7734C140.205 27.6602 139.604 27.0449 138.03 26.6787L136.777 26.3931C135.942 26.2026 135.591 25.873 135.591 25.3896C135.591 24.7744 136.162 24.3569 137.019 24.3569C137.905 24.3569 138.455 24.8257 138.542 25.5728H140.029C139.978 24.1519 138.813 23.1558 137.019 23.1558C135.247 23.1558 134.045 24.1006 134.045 25.4775C134.045 26.5981 134.771 27.3013 136.235 27.6382L137.488 27.9312C138.33 28.1216 138.616 28.4146 138.616 28.9126C138.616 29.5425 138.03 29.938 137.078 29.938C136.111 29.938 135.562 29.5425 135.415 28.7368H133.848C133.994 30.2017 135.151 31.1465 137.078 31.1465ZM144.058 31.0513C144.409 31.0513 144.761 31.022 144.937 30.978V29.7256C144.834 29.7476 144.578 29.7622 144.417 29.7622C143.772 29.7622 143.479 29.4619 143.479 28.7954V24.5474H144.944V23.2949H143.479V21.4712H141.89V23.2949H140.769V24.5474H141.89V28.9712C141.89 30.458 142.498 31.0513 144.058 31.0513ZM149.133 31.1465C150.95 31.1465 152.261 30.1797 152.261 28.7734C152.261 27.6602 151.66 27.0449 150.085 26.6787L148.833 26.3931C147.998 26.2026 147.646 25.873 147.646 25.3896C147.646 24.7744 148.218 24.3569 149.075 24.3569C149.961 24.3569 150.51 24.8257 150.598 25.5728H152.085C152.034 24.1519 150.869 23.1558 149.075 23.1558C147.302 23.1558 146.101 24.1006 146.101 25.4775C146.101 26.5981 146.826 27.3013 148.291 27.6382L149.543 27.9312C150.386 28.1216 150.671 28.4146 150.671 28.9126C150.671 29.5425 150.085 29.938 149.133 29.938C148.167 29.938 147.617 29.5425 147.471 28.7368H145.903C146.05 30.2017 147.207 31.1465 149.133 31.1465Z" fill="black"/>
</g>
<defs>
<clipPath id="clip0_91_44">
<rect width="160" height="40" fill="white" transform="translate(0.5)"/>
</clipPath>
</defs>
</svg>
