<svg width="23" height="23" viewBox="0 0 23 23" fill="none" xmlns="http://www.w3.org/2000/svg">
<path fill-rule="evenodd" clip-rule="evenodd" d="M9.625 2C13.8362 2 17.25 5.41383 17.25 9.625C17.25 13.8362 13.8362 17.25 9.625 17.25C5.41383 17.25 2 13.8362 2 9.625C2 5.41383 5.41383 2 9.625 2ZM9.625 0C14.9407 0 19.25 4.30926 19.25 9.625C19.25 11.9227 18.4449 14.0323 17.1014 15.6872L17.2071 15.7929L21.7905 20.3762L22.4976 21.0833L21.0833 22.4976L20.3762 21.7905L15.7929 17.2071L15.6872 17.1014C14.0323 18.4449 11.9227 19.25 9.625 19.25C4.30926 19.25 0 14.9407 0 9.625C0 4.30926 4.30926 0 9.625 0Z" fill="#313131"/>
</svg>
