<svg width="161" height="40" viewBox="0 0 161 40" fill="none" xmlns="http://www.w3.org/2000/svg">
<g clip-path="url(#clip0_91_32)">
<path d="M153 0.5H8C4.13401 0.5 1 3.63401 1 7.5V32.5C1 36.366 4.13401 39.5 8 39.5H153C156.866 39.5 160 36.366 160 32.5V7.5C160 3.63401 156.866 0.5 153 0.5Z" stroke="#AFAFAF"/>
<path fill-rule="evenodd" clip-rule="evenodd" d="M33.7136 28.3731C33.4784 28.9705 32.9357 29.8116 32.1661 30.4041C31.7217 30.7463 31.1913 31.0734 30.4626 31.2893C29.6859 31.5195 28.7291 31.5973 27.5384 31.5973H16.6506C15.4599 31.5973 14.5032 31.5195 13.7263 31.2893C12.9977 31.0734 12.4673 30.7463 12.0229 30.4041C11.2534 29.8115 10.7106 28.9705 10.4754 28.3731C10.0016 27.1694 9.99683 25.8037 9.99683 24.9436V14.0558C9.99683 13.1957 10.0016 11.83 10.4754 10.6263C10.7106 10.0289 11.2533 9.18777 12.0229 8.59527C12.4672 8.25306 12.9977 7.92595 13.7263 7.71008C14.5031 7.47989 15.4598 7.4021 16.6506 7.4021H27.5385C28.7291 7.4021 29.6859 7.47989 30.4627 7.71008C31.1913 7.92595 31.7217 8.25316 32.1662 8.59527C32.9357 9.18787 33.4785 10.0289 33.7137 10.6263C34.1874 11.83 34.1922 13.1957 34.1922 14.0558V24.9436C34.1922 25.8036 34.1873 27.1693 33.7136 28.3731Z" fill="url(#paint0_linear_91_32)"/>
<path d="M23.8493 21.3091C23.4863 20.926 22.8486 20.6804 22.0958 20.6804C21.3429 20.6804 20.7052 20.926 20.3421 21.3091C20.1527 21.509 20.0525 21.7139 20.021 22.0058C19.9598 22.5711 19.9942 23.0579 20.0604 23.836C20.1235 24.5776 20.2433 25.5664 20.3996 26.5735C20.5109 27.2903 20.6013 27.6771 20.6836 27.9541C20.817 28.403 21.3158 28.7956 22.0958 28.7956C22.8757 28.7956 23.3744 28.4029 23.5079 27.9541C23.5902 27.6771 23.6806 27.2903 23.7918 26.5735C23.9482 25.5664 24.068 24.5776 24.1311 23.836C24.1973 23.0578 24.2317 22.571 24.1705 22.0058C24.139 21.714 24.0388 21.509 23.8493 21.3091ZM20.1175 17.8982C20.1175 18.9918 21.0041 19.8783 22.0976 19.8783C23.1913 19.8783 24.0778 18.9918 24.0778 17.8982C24.0778 16.8046 23.1913 15.918 22.0976 15.918C21.0041 15.918 20.1175 16.8046 20.1175 17.8982ZM22.0731 10.0838C17.442 10.097 13.6473 13.854 13.59 18.4848C13.5435 22.236 15.9381 25.4449 19.2818 26.621C19.363 26.6496 19.4454 26.5822 19.4326 26.4971C19.3888 26.2058 19.3474 25.9131 19.3094 25.6253C19.296 25.5236 19.2312 25.4359 19.1372 25.3949C16.4943 24.2403 14.6489 21.5897 14.6785 18.5194C14.7173 14.4902 18.0075 11.2053 22.0368 11.1728C26.1559 11.1395 29.5175 14.4806 29.5175 18.5922C29.5175 21.6317 27.6801 24.2498 25.0578 25.3952C24.9639 25.4362 24.8994 25.5242 24.8861 25.6258C24.8481 25.9135 24.8068 26.2061 24.763 26.4971C24.7501 26.5822 24.8325 26.6496 24.9137 26.6211C28.2255 25.4562 30.6062 22.2973 30.6062 18.5923C30.606 13.8924 26.7759 10.0703 22.0731 10.0838ZM21.9193 13.9872C24.5446 13.8855 26.7127 15.9917 26.7127 18.5948C26.7127 19.9186 26.1518 21.1138 25.2554 21.9555C25.1793 22.0269 25.1385 22.1282 25.1443 22.2324C25.1622 22.549 25.1557 22.8567 25.1346 23.2042C25.129 23.2968 25.2328 23.3559 25.3094 23.3037C26.8127 22.2764 27.8015 20.549 27.8015 18.5948C27.8015 15.3771 25.1213 12.7735 21.8762 12.8993C18.8604 13.0162 16.4409 15.5027 16.4022 18.5205C16.3768 20.5053 17.3717 22.2637 18.8943 23.3039C18.9707 23.3561 19.0743 23.2969 19.0686 23.2044C19.0474 22.8567 19.041 22.549 19.0588 22.2324C19.0646 22.1283 19.0239 22.027 18.948 21.9557C18.0236 21.0878 17.4559 19.8441 17.492 18.471C17.5557 16.0547 19.5039 14.0807 21.9193 13.9872Z" fill="white"/>
<path d="M43.5 14.8958V9.1042H44.4102V14.1317H47.1681V14.8958H43.5ZM48.5087 9.99855C48.2266 9.99855 47.9808 9.78148 47.9808 9.50362C47.9808 9.22576 48.2266 9 48.5087 9C48.8 9 49.0366 9.22576 49.0366 9.50362C49.0366 9.78148 48.8 9.99855 48.5087 9.99855ZM48.1082 14.8958V10.7019H48.9274V14.8958H48.1082ZM49.8039 14.3488L50.1952 13.7757C50.4956 14.0883 51.0781 14.3748 51.6698 14.3748C52.2887 14.3748 52.6164 14.1317 52.6164 13.7757C52.6164 13.3589 52.1157 13.22 51.5514 13.0984C50.8051 12.9334 49.9313 12.7424 49.9313 11.8394C49.9313 11.1708 50.532 10.5977 51.606 10.5977C52.3615 10.5977 52.9076 10.8582 53.2808 11.1968L52.9167 11.7438C52.6619 11.4486 52.1704 11.2315 51.6151 11.2315C51.0599 11.2315 50.7141 11.4399 50.7141 11.7786C50.7141 12.1433 51.1874 12.2648 51.7335 12.3864C52.498 12.5514 53.4082 12.7511 53.4082 13.7149C53.4082 14.4356 52.7893 15 51.6333 15C50.8961 15 50.2499 14.7829 49.8039 14.3488ZM55.6136 15C54.9218 15 54.5668 14.6266 54.5668 13.9667V11.3878H53.8387V10.7019H54.5668V9.55572H55.386V10.7019H56.278V11.3878H55.386V13.7931C55.386 14.0883 55.5316 14.3054 55.8138 14.3054C56.0049 14.3054 56.1779 14.2272 56.2598 14.1404L56.4691 14.7308C56.2962 14.8871 56.0413 15 55.6136 15ZM56.8723 12.7945C56.8723 11.5789 57.7916 10.5977 59.0749 10.5977C60.3947 10.5977 61.2139 11.5789 61.2139 12.864V13.055H57.737C57.8007 13.767 58.3468 14.3575 59.2297 14.3575C59.6939 14.3575 60.2036 14.1838 60.5313 13.8625L60.9135 14.3748C60.4766 14.7829 59.8577 15 59.1478 15C57.8371 15 56.8723 14.1143 56.8723 12.7945ZM59.0749 11.2402C58.1921 11.2402 57.7734 11.9175 57.7279 12.4906H60.4129C60.3947 11.9349 60.0033 11.2402 59.0749 11.2402ZM65.1668 14.8958V12.2127C65.1668 11.5181 64.7936 11.2923 64.2293 11.2923C63.7196 11.2923 63.2554 11.5876 63.0187 11.9001V14.8958H62.1996V10.7019H63.0187V11.2923C63.31 10.9537 63.8925 10.5977 64.5752 10.5977C65.5036 10.5977 65.986 11.0666 65.986 11.9522V14.8958H65.1668ZM71.498 15C70.1327 15 69.2771 14.0101 69.2771 12.7945C69.2771 11.5876 70.1327 10.5977 71.498 10.5977C72.8723 10.5977 73.7188 11.5876 73.7188 12.7945C73.7188 14.0101 72.8723 15 71.498 15ZM71.498 14.3054C72.3808 14.3054 72.8633 13.5933 72.8633 12.7945C72.8633 12.0043 72.3808 11.2923 71.498 11.2923C70.6242 11.2923 70.1327 12.0043 70.1327 12.7945C70.1327 13.5933 70.6242 14.3054 71.498 14.3054ZM77.6808 14.8958V12.2127C77.6808 11.5181 77.3076 11.2923 76.7433 11.2923C76.2336 11.2923 75.7694 11.5876 75.5328 11.9001V14.8958H74.7136V10.7019H75.5328V11.2923C75.824 10.9537 76.4066 10.5977 77.0892 10.5977C78.0176 10.5977 78.5 11.0666 78.5 11.9522V14.8958H77.6808Z" fill="black"/>
<path d="M45.5234 31L46.5547 27.9531H50.8516L51.8828 31H53.7344L49.6641 19.7266H47.7734L43.7031 31H45.5234ZM50.4062 26.5469H47L48.6797 21.6016H48.7266L50.4062 26.5469ZM56.4609 33.7188V29.6484H56.5C56.9688 30.5625 57.9062 31.1406 59.0859 31.1406C61.1484 31.1406 62.5156 29.4922 62.5156 26.8906C62.5156 24.2891 61.1406 22.6484 59.0547 22.6484C57.8672 22.6484 56.9219 23.25 56.4375 24.1953H56.4062V22.7812H54.7734V33.7188H56.4609ZM58.6094 29.7109C57.3125 29.7109 56.4531 28.6016 56.4531 26.8906C56.4531 25.1953 57.3203 24.0703 58.6094 24.0703C59.9453 24.0703 60.7812 25.1719 60.7812 26.8906C60.7812 28.6172 59.9453 29.7109 58.6094 29.7109ZM65.5 33.7188V29.6484H65.5391C66.0078 30.5625 66.9453 31.1406 68.125 31.1406C70.1875 31.1406 71.5547 29.4922 71.5547 26.8906C71.5547 24.2891 70.1797 22.6484 68.0938 22.6484C66.9062 22.6484 65.9609 23.25 65.4766 24.1953H65.4453V22.7812H63.8125V33.7188H65.5ZM67.6484 29.7109C66.3516 29.7109 65.4922 28.6016 65.4922 26.8906C65.4922 25.1953 66.3594 24.0703 67.6484 24.0703C68.9844 24.0703 69.8203 25.1719 69.8203 26.8906C69.8203 28.6172 68.9844 29.7109 67.6484 29.7109ZM74.6016 31V19.7266H72.9141V31H74.6016ZM79.8438 31.1562C81.7266 31.1562 83.1484 30.0859 83.3828 28.5859H81.7812C81.5547 29.3047 80.8438 29.7891 79.8828 29.7891C78.5312 29.7891 77.6719 28.8438 77.6719 27.4141V27.3125H83.4766V26.7344C83.4766 24.2422 82.0547 22.6328 79.7734 22.6328C77.4531 22.6328 75.9688 24.3516 75.9688 26.9297C75.9688 29.5234 77.4297 31.1562 79.8438 31.1562ZM81.7891 26.1328H77.6797C77.7656 24.8906 78.5938 23.9922 79.7734 23.9922C80.9531 23.9922 81.75 24.875 81.7891 26.1328ZM89.9766 31V27.1484H92.3984C94.6094 27.1484 96.1641 25.6328 96.1641 23.4297C96.1641 21.2344 94.6406 19.7266 92.4531 19.7266H88.2266V31H89.9766ZM91.9844 25.6797H89.9766V21.2031H91.9922C93.5078 21.2031 94.375 22.0156 94.375 23.4375C94.375 24.8594 93.5078 25.6797 91.9844 25.6797ZM101.023 31.1562C103.375 31.1562 104.922 29.5391 104.922 26.8906C104.922 24.25 103.367 22.6328 101.023 22.6328C98.6797 22.6328 97.125 24.25 97.125 26.8906C97.125 29.5391 98.6719 31.1562 101.023 31.1562ZM101.023 29.7656C99.7031 29.7656 98.8438 28.7188 98.8438 26.8906C98.8438 25.0703 99.7031 24.0234 101.023 24.0234C102.344 24.0234 103.203 25.0703 103.203 26.8906C103.203 28.7188 102.352 29.7656 101.023 29.7656ZM109.312 31.1406C110.508 31.1406 111.445 30.5391 111.93 29.6016H111.961V31H113.602V19.7266H111.906V24.1484H111.875C111.414 23.2422 110.477 22.6484 109.297 22.6484C107.234 22.6484 105.859 24.2969 105.859 26.8906C105.859 29.4844 107.234 31.1406 109.312 31.1406ZM109.758 29.7109C108.422 29.7109 107.586 28.625 107.586 26.8906C107.586 25.1641 108.422 24.0703 109.758 24.0703C111.055 24.0703 111.922 25.1875 111.922 26.8906C111.922 28.6094 111.055 29.7109 109.758 29.7109ZM118.844 31.1562C120.82 31.1562 122.219 29.9688 122.398 28.2188H120.773C120.578 29.1719 119.898 29.7422 118.859 29.7422C117.547 29.7422 116.68 28.6953 116.68 26.8906C116.68 25.125 117.539 24.0391 118.844 24.0391C119.945 24.0391 120.602 24.7344 120.773 25.6094H122.383C122.234 23.9922 120.945 22.6328 118.828 22.6328C116.492 22.6328 114.961 24.2812 114.961 26.8906C114.961 29.5469 116.492 31.1562 118.844 31.1562ZM126 31.1406C127.078 31.1406 128.117 30.5625 128.594 29.6484H128.633V31H130.25V25.3359C130.25 23.6875 128.977 22.6328 126.984 22.6328C124.953 22.6328 123.688 23.7266 123.594 25.2109H125.188C125.336 24.4766 125.945 24.0078 126.922 24.0078C127.953 24.0078 128.57 24.5547 128.57 25.4688V26.1016L126.32 26.2344C124.367 26.3438 123.266 27.2266 123.266 28.6641C123.266 30.1406 124.391 31.1406 126 31.1406ZM126.469 29.8047C125.562 29.8047 124.969 29.3359 124.969 28.6172C124.969 27.9141 125.539 27.4688 126.547 27.3984L128.57 27.2734V27.9219C128.57 28.9922 127.648 29.8047 126.469 29.8047ZM134.969 31.1562C136.906 31.1562 138.305 30.125 138.305 28.625C138.305 27.4375 137.664 26.7812 135.984 26.3906L134.648 26.0859C133.758 25.8828 133.383 25.5312 133.383 25.0156C133.383 24.3594 133.992 23.9141 134.906 23.9141C135.852 23.9141 136.438 24.4141 136.531 25.2109H138.117C138.062 23.6953 136.82 22.6328 134.906 22.6328C133.016 22.6328 131.734 23.6406 131.734 25.1094C131.734 26.3047 132.508 27.0547 134.07 27.4141L135.406 27.7266C136.305 27.9297 136.609 28.2422 136.609 28.7734C136.609 29.4453 135.984 29.8672 134.969 29.8672C133.938 29.8672 133.352 29.4453 133.195 28.5859H131.523C131.68 30.1484 132.914 31.1562 134.969 31.1562ZM142.414 31.0547C142.789 31.0547 143.164 31.0234 143.352 30.9766V29.6406C143.242 29.6641 142.969 29.6797 142.797 29.6797C142.109 29.6797 141.797 29.3594 141.797 28.6484V24.1172H143.359V22.7812H141.797V20.8359H140.102V22.7812H138.906V24.1172H140.102V28.8359C140.102 30.4219 140.75 31.0547 142.414 31.0547ZM147.828 31.1562C149.766 31.1562 151.164 30.125 151.164 28.625C151.164 27.4375 150.523 26.7812 148.844 26.3906L147.508 26.0859C146.617 25.8828 146.242 25.5312 146.242 25.0156C146.242 24.3594 146.852 23.9141 147.766 23.9141C148.711 23.9141 149.297 24.4141 149.391 25.2109H150.977C150.922 23.6953 149.68 22.6328 147.766 22.6328C145.875 22.6328 144.594 23.6406 144.594 25.1094C144.594 26.3047 145.367 27.0547 146.93 27.4141L148.266 27.7266C149.164 27.9297 149.469 28.2422 149.469 28.7734C149.469 29.4453 148.844 29.8672 147.828 29.8672C146.797 29.8672 146.211 29.4453 146.055 28.5859H144.383C144.539 30.1484 145.773 31.1562 147.828 31.1562Z" fill="black"/>
</g>
<defs>
<linearGradient id="paint0_linear_91_32" x1="22.0945" y1="7.4021" x2="22.0945" y2="31.5973" gradientUnits="userSpaceOnUse">
<stop stop-color="#F452FF"/>
<stop offset="1" stop-color="#832BC1"/>
</linearGradient>
<clipPath id="clip0_91_32">
<rect width="160" height="40" fill="white" transform="translate(0.5)"/>
</clipPath>
</defs>
</svg>
