<svg width="33" height="32" viewBox="0 0 33 32" fill="none" xmlns="http://www.w3.org/2000/svg">
<path d="M12.4087 16.7059C12.4087 17.5948 13.0583 18.3186 13.8467 18.3186C14.6476 18.3186 15.2846 17.5948 15.2846 16.706C15.2972 15.8234 14.6539 15.0933 13.8467 15.0933C13.0457 15.0933 12.4087 15.8171 12.4087 16.7059Z" fill="#5865F2"/>
<path d="M17.7253 16.7059C17.7253 17.5948 18.3749 18.3186 19.1632 18.3186C19.9704 18.3186 20.6011 17.5948 20.6011 16.706C20.6137 15.8234 19.9704 15.0933 19.1632 15.0933C18.3622 15.0933 17.7253 15.8171 17.7253 16.7059Z" fill="#5865F2"/>
<path fill-rule="evenodd" clip-rule="evenodd" d="M5.15396 7.27606C4.5 8.55953 4.5 10.2397 4.5 13.6V18.4C4.5 21.7603 4.5 23.4405 5.15396 24.7239C5.7292 25.8529 6.64708 26.7708 7.77606 27.346C9.05953 28 10.7397 28 14.1 28H18.9C22.2603 28 23.9405 28 25.2239 27.346C26.3529 26.7708 27.2708 25.8529 27.846 24.7239C28.5 23.4405 28.5 21.7603 28.5 18.4V13.6C28.5 10.2397 28.5 8.55953 27.846 7.27606C27.2708 6.14708 26.3529 5.2292 25.2239 4.65396C23.9405 4 22.2603 4 18.9 4H14.1C10.7397 4 9.05953 4 7.77606 4.65396C6.64708 5.2292 5.7292 6.14708 5.15396 7.27606ZM18.7879 10.0009C19.9126 10.1953 21.0073 10.5348 22.0447 11.011C22.0536 11.0147 22.061 11.0214 22.0655 11.03C23.8723 13.6876 24.7647 16.6856 24.4311 20.1369C24.4305 20.1442 24.4282 20.1512 24.4246 20.1576C24.4211 20.1639 24.4161 20.1694 24.4102 20.1737C23.0417 21.1787 21.7161 21.7888 20.4087 22.1933C20.3985 22.1964 20.3877 22.1963 20.3776 22.1928C20.3675 22.1894 20.3588 22.1829 20.3526 22.1742C20.0505 21.754 19.7762 21.3108 19.5359 20.8454C19.5326 20.8391 19.5307 20.832 19.5303 20.8249C19.5299 20.8177 19.531 20.8105 19.5336 20.8038C19.5361 20.7971 19.5401 20.791 19.5452 20.7859C19.5502 20.7808 19.5563 20.7769 19.5631 20.7743C19.9953 20.6117 20.413 20.4129 20.8117 20.18C20.8189 20.1757 20.825 20.1697 20.8293 20.1625C20.8336 20.1552 20.8361 20.1471 20.8366 20.1387C20.837 20.1303 20.8354 20.1219 20.8318 20.1143C20.8282 20.1067 20.8228 20.1 20.8161 20.095C20.7316 20.0321 20.6477 19.966 20.5676 19.9C20.5604 19.8941 20.5516 19.8904 20.5423 19.8893C20.5331 19.8882 20.5237 19.8897 20.5153 19.8937C17.9277 21.0892 15.0929 21.0892 12.4743 19.8937C12.4659 19.8899 12.4566 19.8886 12.4475 19.8898C12.4383 19.8911 12.4297 19.8948 12.4226 19.9007C12.3425 19.9668 12.2586 20.0321 12.1747 20.095C12.168 20.1001 12.1627 20.1068 12.1591 20.1144C12.1556 20.1221 12.154 20.1305 12.1546 20.1389C12.1551 20.1473 12.1576 20.1555 12.162 20.1627C12.1664 20.1698 12.1725 20.1758 12.1798 20.1801C12.5784 20.4086 12.9927 20.6099 13.4279 20.775C13.4346 20.7774 13.4408 20.7813 13.4459 20.7863C13.451 20.7913 13.455 20.7973 13.4576 20.804C13.4602 20.8106 13.4614 20.8178 13.4611 20.8249C13.4607 20.8321 13.4589 20.8391 13.4557 20.8454C13.2204 21.3114 12.9461 21.7546 12.6383 22.1749C12.632 22.1833 12.6232 22.1896 12.6131 22.1929C12.6031 22.1962 12.5923 22.1963 12.5822 22.1933C11.2811 21.7889 9.95547 21.1788 8.58694 20.1737C8.58114 20.1692 8.57632 20.1635 8.57274 20.1571C8.56917 20.1507 8.56692 20.1436 8.56614 20.1363C8.28734 17.151 8.8556 14.1283 10.9299 11.0294C10.9349 11.0212 10.9424 11.0147 10.9513 11.0109C11.9885 10.5344 13.0833 10.1949 14.2081 10.0009C14.2183 9.99929 14.2287 10.0008 14.238 10.0052C14.2474 10.0096 14.2552 10.0167 14.2604 10.0256C14.4017 10.2758 14.5631 10.5964 14.6722 10.8586C15.8767 10.6745 17.1003 10.6745 18.3301 10.8586C18.4391 10.6021 18.5949 10.2758 18.7356 10.0256C18.7406 10.0165 18.7484 10.0092 18.7578 10.0048C18.7671 10.0003 18.7777 9.99895 18.7879 10.0009Z" fill="#5865F2"/>
</svg>
