<svg width="32" height="32" viewBox="0 0 32 32" fill="none" xmlns="http://www.w3.org/2000/svg">
<path fill-rule="evenodd" clip-rule="evenodd" d="M4.75 14.5C4.75 9.11522 9.11522 4.75 14.5 4.75C19.8848 4.75 24.25 9.11522 24.25 14.5C24.25 19.8848 19.8848 24.25 14.5 24.25C9.11522 24.25 4.75 19.8848 4.75 14.5ZM14.5 3.25C8.2868 3.25 3.25 8.2868 3.25 14.5C3.25 20.7132 8.2868 25.75 14.5 25.75C17.3365 25.75 19.9278 24.7002 21.9066 22.968L27.4691 28.5305C27.762 28.8233 28.2368 28.8233 28.5297 28.5305C28.8226 28.2376 28.8226 27.7627 28.5297 27.4698L22.9674 21.9074C24.7 19.9285 25.75 17.3369 25.75 14.5C25.75 8.2868 20.7132 3.25 14.5 3.25Z" fill="#3E3E3E"/>
</svg>