<svg width="161" height="40" viewBox="0 0 161 40" fill="none" xmlns="http://www.w3.org/2000/svg">
<g clip-path="url(#clip0_91_23)">
<path d="M153 0.5H8C4.13401 0.5 1 3.63401 1 7.5V32.5C1 36.366 4.13401 39.5 8 39.5H153C156.866 39.5 160 36.366 160 32.5V7.5C160 3.63401 156.866 0.5 153 0.5Z" stroke="#AFAFAF"/>
<path d="M43.5 14.8958V9.1042H44.4102V14.1317H47.1681V14.8958H43.5ZM48.5087 9.99855C48.2266 9.99855 47.9808 9.78148 47.9808 9.50362C47.9808 9.22576 48.2266 9 48.5087 9C48.8 9 49.0366 9.22576 49.0366 9.50362C49.0366 9.78148 48.8 9.99855 48.5087 9.99855ZM48.1082 14.8958V10.7019H48.9274V14.8958H48.1082ZM49.8039 14.3488L50.1952 13.7757C50.4956 14.0883 51.0781 14.3748 51.6698 14.3748C52.2887 14.3748 52.6164 14.1317 52.6164 13.7757C52.6164 13.3589 52.1157 13.22 51.5514 13.0984C50.8051 12.9334 49.9313 12.7424 49.9313 11.8394C49.9313 11.1708 50.532 10.5977 51.606 10.5977C52.3615 10.5977 52.9076 10.8582 53.2808 11.1968L52.9167 11.7438C52.6619 11.4486 52.1704 11.2315 51.6151 11.2315C51.0599 11.2315 50.7141 11.4399 50.7141 11.7786C50.7141 12.1433 51.1874 12.2648 51.7335 12.3864C52.498 12.5514 53.4082 12.7511 53.4082 13.7149C53.4082 14.4356 52.7893 15 51.6333 15C50.8961 15 50.2499 14.7829 49.8039 14.3488ZM55.6136 15C54.9218 15 54.5668 14.6266 54.5668 13.9667V11.3878H53.8387V10.7019H54.5668V9.55572H55.386V10.7019H56.278V11.3878H55.386V13.7931C55.386 14.0883 55.5316 14.3054 55.8138 14.3054C56.0049 14.3054 56.1779 14.2272 56.2598 14.1404L56.4691 14.7308C56.2962 14.8871 56.0413 15 55.6136 15ZM56.8723 12.7945C56.8723 11.5789 57.7916 10.5977 59.0749 10.5977C60.3947 10.5977 61.2139 11.5789 61.2139 12.864V13.055H57.737C57.8007 13.767 58.3468 14.3575 59.2297 14.3575C59.6939 14.3575 60.2036 14.1838 60.5313 13.8625L60.9135 14.3748C60.4766 14.7829 59.8577 15 59.1478 15C57.8371 15 56.8723 14.1143 56.8723 12.7945ZM59.0749 11.2402C58.1921 11.2402 57.7734 11.9175 57.7279 12.4906H60.4129C60.3947 11.9349 60.0033 11.2402 59.0749 11.2402ZM65.1668 14.8958V12.2127C65.1668 11.5181 64.7936 11.2923 64.2293 11.2923C63.7196 11.2923 63.2554 11.5876 63.0187 11.9001V14.8958H62.1996V10.7019H63.0187V11.2923C63.31 10.9537 63.8925 10.5977 64.5752 10.5977C65.5036 10.5977 65.986 11.0666 65.986 11.9522V14.8958H65.1668ZM71.498 15C70.1327 15 69.2771 14.0101 69.2771 12.7945C69.2771 11.5876 70.1327 10.5977 71.498 10.5977C72.8723 10.5977 73.7188 11.5876 73.7188 12.7945C73.7188 14.0101 72.8723 15 71.498 15ZM71.498 14.3054C72.3808 14.3054 72.8633 13.5933 72.8633 12.7945C72.8633 12.0043 72.3808 11.2923 71.498 11.2923C70.6242 11.2923 70.1327 12.0043 70.1327 12.7945C70.1327 13.5933 70.6242 14.3054 71.498 14.3054ZM77.6808 14.8958V12.2127C77.6808 11.5181 77.3076 11.2923 76.7433 11.2923C76.2336 11.2923 75.7694 11.5876 75.5328 11.9001V14.8958H74.7136V10.7019H75.5328V11.2923C75.824 10.9537 76.4066 10.5977 77.0892 10.5977C78.0176 10.5977 78.5 11.0666 78.5 11.9522V14.8958H77.6808Z" fill="black"/>
<path fill-rule="evenodd" clip-rule="evenodd" d="M30.3942 18.0815C26.3649 15.6886 19.7187 15.4686 15.8722 16.636C15.2544 16.8235 14.6012 16.4748 14.4141 15.8572C14.2269 15.239 14.5753 14.5863 15.1934 14.3985C19.6088 13.0583 26.949 13.3171 31.5876 16.0706C32.1432 16.4005 32.3254 17.118 31.9961 17.6727C31.6665 18.2283 30.9484 18.4114 30.3942 18.0815ZM30.2622 21.6257C29.9795 22.0844 29.3798 22.2283 28.9217 21.9466C25.5625 19.8818 20.4401 19.2836 16.4659 20.4899C15.9505 20.6456 15.4062 20.3551 15.2497 19.8406C15.0944 19.3254 15.385 18.782 15.8996 18.6253C20.4395 17.2476 26.0834 17.9148 29.9416 20.2859C30.3997 20.568 30.5439 21.168 30.2622 21.6257ZM28.7327 25.0294C28.5081 25.3978 28.0285 25.5132 27.6614 25.2887C24.7261 23.4947 21.0315 23.0896 16.6804 24.0834C16.2611 24.1795 15.8431 23.9168 15.7475 23.4975C15.6515 23.0784 15.9133 22.6604 16.3335 22.5647C21.0951 21.4763 25.1794 21.9447 28.4742 23.958C28.8415 24.1823 28.9572 24.6622 28.7327 25.0294ZM23 7C16.0966 7 10.5 12.5964 10.5 19.4999C10.5 26.404 16.0966 32 23 32C29.9037 32 35.5 26.404 35.5 19.4999C35.5 12.5964 29.9037 7 23 7Z" fill="#1ED760"/>
<path d="M47.688 31.1992C50.4771 31.1992 52.2534 29.7798 52.2534 27.522C52.2534 25.7788 51.2241 24.7744 48.7173 24.2432L47.4058 23.9692C45.8535 23.6372 45.2393 23.0562 45.2393 22.1846C45.2393 21.0889 46.2686 20.4082 47.6714 20.4082C49.124 20.4082 50.1118 21.147 50.228 22.3506H52.0293C51.9712 20.2588 50.2363 18.8228 47.6963 18.8228C45.1479 18.8228 43.3467 20.2339 43.3467 22.2842C43.3467 24.0107 44.4341 25.123 46.833 25.6294L48.1362 25.9033C49.7383 26.252 50.3691 26.833 50.3691 27.7627C50.3691 28.8335 49.2817 29.6138 47.7627 29.6138C46.1689 29.6138 45.04 28.8999 44.874 27.7129H43.0645C43.1807 29.8462 44.9819 31.1992 47.688 31.1992ZM55.499 33.8887V29.564H55.5405C56.0386 30.5352 57.0347 31.1494 58.2881 31.1494C60.4795 31.1494 61.9321 29.3979 61.9321 26.6338C61.9321 23.8696 60.4712 22.1265 58.2549 22.1265C56.9932 22.1265 55.9888 22.7656 55.4741 23.77H55.4409V22.2676H53.7061V33.8887H55.499ZM57.7817 29.6304C56.4038 29.6304 55.4907 28.4517 55.4907 26.6338C55.4907 24.8325 56.4121 23.6372 57.7817 23.6372C59.2012 23.6372 60.0894 24.8076 60.0894 26.6338C60.0894 28.4683 59.2012 29.6304 57.7817 29.6304ZM67.062 31.166C69.5605 31.166 71.2041 29.4478 71.2041 26.6338C71.2041 23.8281 69.5522 22.1099 67.062 22.1099C64.5718 22.1099 62.9199 23.8281 62.9199 26.6338C62.9199 29.4478 64.5635 31.166 67.062 31.166ZM67.062 29.6885C65.6592 29.6885 64.7461 28.5762 64.7461 26.6338C64.7461 24.6997 65.6592 23.5874 67.062 23.5874C68.4648 23.5874 69.3779 24.6997 69.3779 26.6338C69.3779 28.5762 68.4731 29.6885 67.062 29.6885ZM75.5703 31.0581C75.9688 31.0581 76.3672 31.0249 76.5664 30.9751V29.5557C76.4502 29.5806 76.1597 29.5972 75.9771 29.5972C75.2466 29.5972 74.9146 29.2568 74.9146 28.5015V23.687H76.5747V22.2676H74.9146V20.2007H73.1133V22.2676H71.8433V23.687H73.1133V28.7007C73.1133 30.3857 73.8022 31.0581 75.5703 31.0581ZM78.9985 20.8564C79.5713 20.8564 80.0278 20.3916 80.0278 19.8271C80.0278 19.2544 79.5713 18.7979 78.9985 18.7979C78.4258 18.7979 77.9609 19.2544 77.9609 19.8271C77.9609 20.3916 78.4258 20.8564 78.9985 20.8564ZM79.895 31V22.2676H78.1021V31H79.895ZM84.0537 31V23.687H85.7969V22.2842H84.0288V21.4624C84.0288 20.6904 84.394 20.3003 85.1743 20.3003C85.415 20.3003 85.6558 20.3169 85.8301 20.3501V19.022C85.5977 18.9805 85.1909 18.939 84.8257 18.939C83.0493 18.939 82.2524 19.7358 82.2524 21.4292V22.2842H81.0488V23.687H82.2524V31H84.0537ZM88.0796 34.2539C89.8892 34.2539 90.7524 33.5732 91.4995 31.4565L94.77 22.2676H92.8774L90.6694 29.373H90.6362L88.4282 22.2676H86.4858L89.6401 31.0083C89.6401 31.0166 89.4824 31.5312 89.4824 31.5479C89.2085 32.4443 88.7603 32.793 87.9302 32.793C87.7808 32.793 87.4819 32.793 87.3491 32.7598V34.2124C87.4819 34.2373 87.9302 34.2539 88.0796 34.2539Z" fill="black"/>
</g>
<defs>
<clipPath id="clip0_91_23">
<rect width="160" height="40" fill="white" transform="translate(0.5)"/>
</clipPath>
</defs>
</svg>
