<svg width="33" height="32" viewBox="0 0 33 32" fill="none" xmlns="http://www.w3.org/2000/svg">
<path d="M19.4094 15.9996C19.4094 14.393 18.1069 13.0906 16.5004 13.0906C14.8938 13.0906 13.5914 14.393 13.5914 15.9996C13.5914 17.6061 14.8938 18.9086 16.5004 18.9086C18.1069 18.9086 19.4094 17.6061 19.4094 15.9996Z" fill="url(#paint0_linear_625_13661)"/>
<path fill-rule="evenodd" clip-rule="evenodd" d="M16.2096 8.84522C16.0331 8.84514 15.8696 8.84507 15.7176 8.84531V8.84313C14.0911 8.84494 13.7791 8.85585 12.974 8.89222C12.1231 8.93131 11.6611 9.07312 11.3535 9.19312C10.9462 9.35166 10.6553 9.54074 10.3499 9.84619C10.0445 10.1516 9.85501 10.4425 9.69683 10.8498C9.57738 11.1574 9.4352 11.6192 9.39629 12.4701C9.35448 13.3901 9.34611 13.665 9.34611 15.9955C9.34611 18.3259 9.35448 18.6023 9.39629 19.5223C9.43502 20.3731 9.57738 20.8349 9.69683 21.1422C9.85537 21.5497 10.0445 21.8398 10.3499 22.1453C10.6553 22.4507 10.9462 22.6398 11.3535 22.798C11.6613 22.9174 12.1231 23.0596 12.974 23.0989C13.894 23.1407 14.1701 23.1498 16.5004 23.1498C18.8306 23.1498 19.1069 23.1407 20.0269 23.0989C20.8778 23.06 21.3399 22.9182 21.6472 22.7982C22.0546 22.64 22.3446 22.4509 22.6501 22.1454C22.9555 21.8402 23.145 21.5502 23.3031 21.1429C23.4226 20.8357 23.5648 20.3739 23.6037 19.523C23.6455 18.603 23.6546 18.3267 23.6546 15.9976C23.6546 13.6686 23.6455 13.3923 23.6037 12.4723C23.565 11.6214 23.4226 11.1596 23.3031 10.8523C23.1446 10.4451 22.9555 10.1542 22.6501 9.84873C22.3448 9.54329 22.0545 9.3542 21.6472 9.19602C21.3396 9.07657 20.8778 8.9344 20.0269 8.89549C19.1067 8.85367 18.8306 8.84531 16.5004 8.84531C16.3997 8.84531 16.3028 8.84526 16.2096 8.84522ZM20.1116 11.3412C20.1116 10.7629 20.5807 10.2944 21.1588 10.2944C21.737 10.2944 22.2061 10.7631 22.2061 11.3412C22.2061 11.9194 21.737 12.3885 21.1588 12.3885C20.5807 12.3885 20.1116 11.9194 20.1116 11.3412ZM12.0188 15.9996C12.0188 13.5246 14.0254 11.518 16.5004 11.518C18.9755 11.518 20.9814 13.5246 20.9814 15.9996C20.9814 18.4747 18.9755 20.4804 16.5004 20.4804C14.0254 20.4804 12.0188 18.4747 12.0188 15.9996Z" fill="url(#paint1_linear_625_13661)"/>
<path fill-rule="evenodd" clip-rule="evenodd" d="M5.15396 7.27606C4.5 8.55953 4.5 10.2397 4.5 13.6V18.4C4.5 21.7603 4.5 23.4405 5.15396 24.7239C5.7292 25.8529 6.64708 26.7708 7.77606 27.346C9.05953 28 10.7397 28 14.1 28H18.9C22.2603 28 23.9405 28 25.2239 27.346C26.3529 26.7708 27.2708 25.8529 27.846 24.7239C28.5 23.4405 28.5 21.7603 28.5 18.4V13.6C28.5 10.2397 28.5 8.55953 27.846 7.27606C27.2708 6.14708 26.3529 5.2292 25.2239 4.65396C23.9405 4 22.2603 4 18.9 4H14.1C10.7397 4 9.05953 4 7.77606 4.65396C6.64708 5.2292 5.7292 6.14708 5.15396 7.27606ZM12.902 7.32535C13.8329 7.28299 14.1303 7.27263 16.5004 7.27263H16.4977C18.8686 7.27263 19.1649 7.28299 20.0958 7.32535C21.0248 7.3679 21.6594 7.51498 22.2157 7.7308C22.7903 7.95352 23.2757 8.25169 23.7611 8.73713C24.2466 9.22221 24.5447 9.7091 24.7684 10.2831C24.9829 10.838 25.1302 11.4721 25.1738 12.4012C25.2156 13.3321 25.2265 13.6295 25.2265 15.9996C25.2265 18.3697 25.2156 18.6665 25.1738 19.5973C25.1302 20.526 24.9829 21.1604 24.7684 21.7155C24.5447 22.2893 24.2466 22.7762 23.7611 23.2612C23.2762 23.7467 22.7901 24.0456 22.2163 24.2685C21.661 24.4843 21.0261 24.6314 20.0971 24.6739C19.1662 24.7163 18.8696 24.7266 16.4993 24.7266C14.1294 24.7266 13.8322 24.7163 12.9013 24.6739C11.9724 24.6314 11.3381 24.4843 10.7828 24.2685C10.2092 24.0456 9.72228 23.7467 9.23739 23.2612C8.75213 22.7762 8.45396 22.2893 8.23087 21.7153C8.01524 21.1604 7.86816 20.5262 7.82543 19.5972C7.78325 18.6663 7.77271 18.3697 7.77271 15.9996C7.77271 13.6295 7.78361 13.3319 7.82525 12.401C7.86707 11.4723 8.01433 10.838 8.23069 10.2829C8.45432 9.7091 8.75249 9.22221 9.23793 8.73713C9.72301 8.25187 10.2099 7.9537 10.7839 7.7308C11.3388 7.51498 11.9729 7.3679 12.902 7.32535Z" fill="url(#paint2_linear_625_13661)"/>
<defs>
<linearGradient id="paint0_linear_625_13661" x1="18.6005" y1="2.72835" x2="11.5872" y2="25.8988" gradientUnits="userSpaceOnUse">
<stop stop-color="#515BD4"/>
<stop offset="0.26" stop-color="#9510B8"/>
<stop offset="0.66" stop-color="#E51804"/>
<stop offset="1" stop-color="#FFBF00"/>
</linearGradient>
<linearGradient id="paint1_linear_625_13661" x1="18.6005" y1="2.72835" x2="11.5872" y2="25.8988" gradientUnits="userSpaceOnUse">
<stop stop-color="#515BD4"/>
<stop offset="0.26" stop-color="#9510B8"/>
<stop offset="0.66" stop-color="#E51804"/>
<stop offset="1" stop-color="#FFBF00"/>
</linearGradient>
<linearGradient id="paint2_linear_625_13661" x1="18.6005" y1="2.72835" x2="11.5872" y2="25.8988" gradientUnits="userSpaceOnUse">
<stop stop-color="#515BD4"/>
<stop offset="0.26" stop-color="#9510B8"/>
<stop offset="0.66" stop-color="#E51804"/>
<stop offset="1" stop-color="#FFBF00"/>
</linearGradient>
</defs>
</svg>
